<?xml version="1.0" standalone="no"?>
<!DOCTYPE svg PUBLIC "-//W3C//DTD SVG 20010904//EN"
 "http://www.w3.org/TR/2001/REC-SVG-20010904/DTD/svg10.dtd">
<svg version="1.0" xmlns="http://www.w3.org/2000/svg"
 width="1170.000000pt" height="1170.000000pt" viewBox="0 0 1170.000000 1170.000000"
 preserveAspectRatio="xMidYMid meet">
<metadata>
Created by potrace 1.14, written by Peter Selinger 2001-2017
</metadata>
<g transform="translate(0.000000,1170.000000) scale(0.100000,-0.100000)"
fill="#000000" stroke="none">
<path d="M4268 11689 c-2 -7 -452 -10 -1518 -10 -833 1 -1536 -2 -1562 -5 -47
-6 -47 -7 -50 -48 -3 -40 -4 -41 -45 -44 -29 -2 -43 -8 -45 -19 -2 -9 -2 -445
0 -970 l2 -953 45 0 45 0 0 -39 c0 -43 -10 -51 -65 -51 l-33 0 -1 -817 c-1
-450 2 -823 7 -830 4 -6 25 -13 47 -15 39 -3 40 -4 40 -43 l0 -40 -45 -5 -45
-5 -1 -808 c-1 -444 0 -816 3 -827 4 -14 16 -20 47 -22 40 -3 41 -4 44 -40 2
-21 0 -39 -5 -39 -4 -1 -23 -3 -42 -5 -19 -2 -38 -9 -42 -16 -13 -20 -10 -277
3 -320 9 -30 19 -43 45 -53 18 -8 33 -21 33 -29 0 -20 -26 -21 -34 -1 -8 23
-33 18 -40 -7 -12 -45 -7 -68 14 -68 22 0 27 -16 8 -23 -7 -3 1 -10 17 -17 27
-11 28 -13 11 -19 -14 -5 -16 -10 -8 -15 22 -13 12 -24 -20 -22 -30 1 -33 -2
-36 -31 -2 -22 3 -38 19 -54 39 -39 46 -159 9 -159 -20 0 -30 -27 -30 -80 0
-46 9 -57 44 -62 44 -5 46 -28 2 -28 -25 0 -36 -5 -36 -14 0 -8 -10 -16 -22
-18 l-23 -3 -3 -232 c-3 -272 -6 -264 91 -254 4 1 7 111 7 246 0 238 1 245 20
245 19 0 20 7 20 98 0 54 -4 102 -9 107 -5 6 -12 40 -16 78 -6 58 -5 67 9 67
14 0 16 34 16 340 l0 340 505 0 505 0 0 -515 0 -515 50 0 50 0 0 515 0 515
780 0 779 0 3 -92 3 -93 42 -3 c42 -3 42 -3 45 -45 3 -42 3 -42 45 -45 42 -3
42 -3 45 -45 3 -42 3 -42 48 -47 45 -5 45 -5 48 -47 3 -42 3 -42 45 -45 42 -3
42 -3 47 -48 5 -45 5 -45 47 -48 42 -3 42 -3 45 -45 3 -42 3 -42 48 -47 45 -5
45 -5 48 -47 l3 -43 90 0 89 0 0 -45 0 -45 90 0 90 0 0 -45 0 -45 83 -1 c45
-1 107 -2 137 -2 l55 -2 3 -43 3 -42 -40 0 c-22 0 -43 -4 -46 -10 -4 -6 30
-10 94 -10 83 0 101 -3 101 -15 0 -17 15 -16 -255 -18 l-200 -2 -3 -47 -3 -48
-134 0 -134 0 -3 -42 c-3 -43 -3 -43 -45 -46 l-43 -3 0 45 0 46 -44 0 -45 0
-3 48 -3 47 -42 3 c-29 2 -43 8 -43 18 0 10 -14 14 -54 14 -51 0 -53 -1 -49
-24 4 -20 10 -23 44 -21 42 2 61 -11 38 -26 -8 -5 -9 -9 -3 -9 6 0 11 -12 10
-27 -1 -22 3 -28 19 -26 11 2 32 0 48 -3 27 -6 27 -6 27 -85 0 -95 5 -92 -156
-87 -89 2 -109 6 -109 18 0 8 6 21 15 28 13 11 13 11 -1 7 -11 -4 -15 0 -15
17 1 20 -4 23 -47 26 -29 2 -45 7 -41 13 3 6 3 26 0 45 l-7 34 -184 0 c-141 0
-185 -3 -186 -12 -1 -7 -3 -22 -4 -33 -1 -11 -3 -27 -3 -36 -2 -12 -13 -16
-44 -15 l-42 1 3 -42 c2 -30 -1 -43 -11 -44 -7 0 -29 -1 -48 -2 l-35 -2 -1
-161 c0 -88 1 -174 3 -191 4 -28 8 -30 46 -29 l42 1 3 -83 3 -83 -45 4 c-29 2
-46 0 -47 -7 -1 -6 -2 -24 -3 -41 -2 -16 -4 -36 -4 -42 -1 -8 -19 -13 -47 -13
l-45 0 -1 -37 c-1 -21 -1 -41 0 -45 0 -3 -16 -5 -37 -4 l-37 2 0 89 0 90 -45
1 -45 1 0 306 c0 169 4 307 8 307 5 0 6 3 4 8 -3 4 14 7 36 7 l42 0 2 90 1 90
34 1 c54 1 58 3 58 24 0 17 -7 20 -50 20 -43 0 -50 -3 -50 -20 0 -17 -7 -20
-45 -20 l-45 0 0 -90 0 -90 -45 0 -45 0 0 -45 0 -45 -780 0 -780 0 0 155 0
155 -25 0 -25 0 3 418 2 417 318 3 c250 2 317 0 317 -10 0 -7 0 -196 0 -420
l0 -408 50 0 50 0 0 425 0 425 -45 0 -45 0 0 45 0 45 -325 0 -325 0 0 -44 0
-45 -43 -3 -42 -3 -3 -422 -2 -423 25 0 25 0 0 -155 0 -155 45 0 45 0 0 -45 0
-45 775 0 775 0 0 -45 0 -45 -910 0 -910 0 0 -50 0 -50 910 0 909 0 3 -132 3
-133 48 -3 48 -3 -1 -77 c-1 -42 -1 -83 -1 -89 1 -9 17 -13 46 -13 l45 0 0
-45 0 -45 -45 0 -45 0 0 45 0 45 -961 0 -960 0 3 -47 3 -48 952 -2 c524 -1
953 -5 953 -8 0 -3 0 -41 0 -84 l0 -80 -42 -3 -43 -3 -3 -48 -3 -47 -40 0 -39
0 0 45 c0 29 -4 45 -12 45 -7 0 -337 0 -733 1 l-720 0 -3 -45 -3 -46 -45 0
-44 0 0 -595 0 -595 45 0 45 0 0 -45 0 -45 502 -2 501 -3 0 -75 c-1 -41 -2
-81 -2 -87 -1 -10 -135 -13 -636 -13 l-635 0 0 871 0 870 -48 -3 -47 -3 -1
-867 -2 -868 49 0 49 0 0 -45 0 -45 638 -2 637 -3 0 -225 0 -225 -637 -3 -638
-2 0 -45 0 -44 -47 -3 -48 -3 -3 -753 -3 -752 51 0 50 0 0 755 0 755 635 0
635 0 5 -22 c5 -18 3 -87 -4 -150 -1 -5 -226 -8 -501 -8 l-500 0 0 -45 0 -45
-45 0 -45 0 0 -620 0 -620 45 0 45 0 0 615 0 615 550 0 550 0 0 -180 0 -180
45 0 45 0 0 -140 0 -140 45 0 45 0 0 -135 0 -135 45 0 45 0 0 -90 0 -90 45 0
45 0 0 -45 c0 -48 4 -51 68 -45 17 1 22 -4 22 -24 0 -25 3 -26 53 -26 57 0 55
-2 48 52 -1 3 -20 6 -43 5 l-43 -1 0 87 c0 85 -3 92 -34 87 -7 -1 -25 1 -38 5
-22 5 -25 10 -21 45 4 44 -9 54 -64 52 l-27 -1 -3 137 -3 137 -40 0 -40 0 -5
135 -5 135 -45 3 -45 3 3 157 c4 197 3 200 -48 204 l-40 3 -3 538 -2 537 31 0
c63 0 65 7 62 197 l-3 172 45 3 45 3 5 135 5 135 40 1 40 0 3 138 3 137 27 -1
c64 -5 62 -8 62 89 l0 90 47 3 47 3 2 40 c1 22 2 44 3 49 0 5 19 6 40 2 l39
-6 8 90 7 90 32 0 c36 0 58 19 55 47 -5 45 0 55 23 49 12 -3 33 -3 45 1 21 5
22 11 22 94 l0 88 43 3 c42 3 42 3 47 48 4 40 7 45 29 42 42 -6 70 6 64 28
-10 37 5 69 30 66 13 -1 27 -5 32 -8 17 -10 30 15 30 57 0 39 1 40 33 37 40
-4 62 11 55 38 -3 11 -1 20 5 20 6 0 8 9 5 20 -5 19 0 20 87 20 l92 0 -3 43
c-3 38 -1 42 19 40 45 -5 71 13 74 54 l3 38 75 2 c41 1 81 2 88 2 8 1 12 17
12 46 l0 45 90 0 c96 0 93 -2 90 57 l-1 32 93 3 93 3 0 40 0 40 135 5 135 5 5
45 5 45 213 -4 c234 -4 242 -2 242 54 0 20 6 35 15 39 22 8 1218 6 1232 -2 6
-4 13 -25 15 -47 l3 -40 205 -2 c113 -1 215 -3 228 -3 21 0 23 -4 20 -42 l-3
-43 183 0 c175 0 183 -1 188 -20 3 -11 3 -31 2 -45 -3 -25 -3 -25 90 -28 l92
-3 -2 -42 -3 -42 137 -3 137 -3 3 -42 3 -42 86 -3 c95 -3 99 -6 99 -74 0 -24
3 -26 42 -25 l42 2 -3 -43 c-2 -29 2 -43 11 -44 15 -2 45 -5 71 -7 15 -1 18
-8 16 -34 -5 -52 4 -57 97 -57 l86 0 -2 -32 c-3 -53 -1 -59 18 -57 9 1 29 1
45 0 25 -1 27 -4 27 -46 l0 -45 48 0 47 0 0 -42 0 -43 45 -5 c31 -3 44 -9 42
-18 -1 -8 -4 -27 -6 -43 -3 -28 -2 -29 44 -29 56 0 60 -7 54 -97 -5 -84 1 -96
41 -89 38 8 58 -10 51 -46 -6 -34 6 -49 35 -44 13 3 27 5 32 5 4 1 7 18 7 38
0 21 7 56 16 80 22 57 14 73 -36 73 l-40 0 0 45 c0 43 1 45 24 39 45 -11 65 3
68 49 3 42 3 42 46 45 l42 3 0 90 0 89 45 0 45 0 0 45 0 45 455 0 455 0 -2
-637 -3 -638 -350 -5 c-192 -3 -358 -9 -367 -13 -33 -13 -53 -20 -72 -24 -30
-5 -31 -8 -34 -101 -3 -75 -1 -90 16 -110 26 -29 62 -30 55 -1 -4 14 0 25 11
31 12 7 16 24 16 68 l0 60 364 0 365 0 3 42 c3 43 3 43 48 48 l45 5 3 637 2
637 -47 3 -48 3 -3 48 -3 47 -437 0 c-240 0 -445 0 -454 0 -16 0 -18 11 -18
85 l0 85 573 2 c316 2 581 2 590 0 15 -3 17 -72 19 -885 2 -485 2 -894 0 -909
l-3 -27 -414 -3 c-259 -2 -417 -7 -423 -13 -6 -6 -6 -23 0 -43 l9 -32 419 0
420 0 0 45 0 45 45 0 45 0 -2 913 -3 912 -42 3 c-42 3 -42 3 -45 45 l-3 42
-592 3 -593 2 0 45 0 45 -45 0 -45 0 0 90 0 90 -45 0 -45 0 0 45 0 45 -45 0
c-33 0 -45 4 -45 15 0 8 -1 18 -2 22 -2 5 15 8 37 9 66 2 65 0 65 54 l0 50
-45 0 -45 0 0 825 0 825 90 0 90 0 0 -775 c0 -727 1 -775 18 -784 14 -7 40 -8
74 -2 5 0 9 331 10 734 l3 732 88 3 88 3 -3 47 -3 47 -85 0 -85 0 -3 273 -2
272 90 0 91 0 -3 53 -3 52 -85 0 -85 0 -3 176 -2 176 470 6 c258 4 589 4 735
0 l265 -6 -2 -1371 -3 -1371 -177 -3 -178 -2 0 45 0 46 -142 -3 -143 -3 -3
-44 c-2 -28 1 -47 10 -52 7 -5 167 -9 356 -9 l342 0 0 -2510 0 -2510 50 0 50
0 0 2510 0 2510 -35 0 -35 0 0 1390 0 1390 -45 0 -45 0 0 45 0 45 -687 2 -688
3 -5 45 -5 45 -182 3 -183 2 0 45 0 45 1010 0 1010 0 1 -1307 c0 -720 2 -1321
2 -1338 2 -29 4 -30 47 -30 l45 0 3 1338 2 1337 -44 0 -45 0 -3 43 -3 42
-1012 3 -1013 2 -2 -22 c-1 -13 -2 -32 -2 -43 -1 -16 -9 -21 -43 -23 l-43 -3
-2 228 -3 228 -49 3 -48 3 4 49 c4 38 1 51 -14 64 -10 9 -18 20 -18 26 0 13
27 13 35 0 9 -15 35 -12 42 5 6 17 -43 74 -65 75 -9 0 -11 7 -7 22 6 17 4 20
-10 15 -9 -4 -25 -7 -36 -7 -19 0 -19 -7 -17 -127 l3 -128 43 -3 42 -3 0 -225
0 -224 45 0 46 0 -3 -92 -3 -93 -547 -3 -547 -2 -3 -43 -3 -42 -272 -3 -273
-2 0 -50 0 -50 273 2 272 3 3 48 3 47 550 0 549 0 0 -185 0 -185 -90 0 -90 0
0 45 0 45 -690 0 -690 0 0 -45 0 -45 690 0 690 0 0 -45 0 -45 90 0 90 0 0 -89
0 -90 -42 -3 -43 -3 -3 -92 -3 -93 -179 0 -180 0 0 45 0 45 -182 2 -183 3 -5
45 -5 45 -182 3 -182 2 -3 43 -3 42 -182 3 -183 2 0 -50 0 -50 182 -2 181 -3
1 -40 1 -40 188 -3 187 -2 0 -45 0 -45 179 0 180 0 3 -42 3 -43 183 -3 182 -2
0 -45 0 -45 -45 0 -45 0 0 -140 0 -140 -45 0 -45 0 0 -90 0 -90 -45 0 -45 0 0
-84 c0 -93 -5 -102 -60 -108 l-35 -3 -3 -87 -3 -87 -42 -3 c-42 -3 -42 -3 -45
-45 -3 -42 -3 -42 -45 -45 l-42 -3 -3 -47 -3 -48 -45 0 -44 0 0 -45 0 -45 -45
0 -45 0 0 -45 0 -45 -44 0 c-40 0 -44 -2 -49 -30 -4 -16 -4 -36 -1 -45 5 -12
-10 -15 -88 -17 -91 -3 -93 -4 -96 -28 -7 -65 -10 -69 -55 -72 -42 -3 -42 -3
-45 -45 l-3 -43 -90 0 -89 0 0 -45 0 -45 -134 0 -135 0 -3 -42 -3 -43 -182 -3
-183 -2 0 -45 0 -45 -600 0 -600 0 0 45 0 45 -185 0 -185 0 0 45 0 44 -137 3
-138 3 -3 43 -3 42 -90 0 -89 0 0 45 c0 29 -5 45 -12 46 -7 1 -26 2 -43 3 -28
1 -30 4 -35 46 l-5 45 -87 3 -87 3 -3 42 c-3 42 -3 42 -48 47 l-45 5 0 40 0
40 -47 3 -48 3 0 45 c0 39 -3 44 -22 45 -67 3 -63 -3 -68 94 l-5 90 -45 5
c-45 5 -45 5 -48 47 -3 42 -3 42 -45 45 l-42 3 -5 90 -5 90 -40 1 -40 0 -3 92
-3 92 -44 0 -44 0 -3 138 -3 137 -42 3 c-43 3 -43 3 -43 42 0 39 0 39 43 42
l42 3 3 48 3 47 90 0 89 0 0 45 0 44 93 3 92 3 3 42 3 42 92 3 c91 3 92 3 93
28 1 14 -3 36 -7 48 -8 22 -13 23 -96 20 l-88 -3 -3 -47 -3 -48 -90 0 -89 0 0
-45 0 -45 -89 0 -90 0 -3 -42 c-3 -43 -3 -43 -45 -46 l-43 -3 0 135 0 136 135
0 135 0 0 45 c0 29 4 45 13 45 6 1 87 0 179 0 151 -1 168 1 175 17 5 10 8 25
7 33 -1 8 -2 23 -3 33 -1 15 -17 17 -186 17 l-185 0 0 -45 0 -45 -135 0 -135
0 0 135 0 135 368 2 367 3 3 42 3 43 -323 2 -323 3 0 90 0 90 43 3 42 3 0 90
0 89 45 0 45 0 0 415 0 415 45 0 45 0 2 183 3 182 45 5 45 5 3 138 3 137 44 0
45 0 0 90 0 90 45 0 c53 0 58 10 53 116 l-3 69 45 5 c45 5 45 5 48 48 l3 42
45 0 44 0 0 45 0 45 45 0 45 0 0 -45 0 -45 45 0 45 0 0 325 0 325 -45 0 -45 0
-2 323 -3 322 -42 3 -43 3 0 240 0 239 -49 0 c-27 0 -51 -5 -53 -11z m-2120
-1076 l-3 -968 -500 0 -500 0 -3 968 -2 967 505 0 505 0 -2 -967z m2124 785
l3 -183 47 -3 48 -3 2 -322 3 -322 25 -2 c14 0 33 -1 43 -2 16 -1 17 -19 17
-226 l0 -225 -45 0 -45 0 0 -44 0 -45 -47 -3 -48 -3 -3 -47 -3 -48 -38 0 c-26
0 -41 5 -45 16 -3 9 -6 321 -6 695 l0 679 -45 0 -45 0 0 45 0 45 -740 0 -740
0 0 -45 0 -45 -45 0 -45 0 0 -695 0 -695 45 0 45 0 0 -45 0 -45 738 -2 737 -3
0 -90 0 -90 -915 0 -915 0 -3 968 -2 967 1010 0 1010 0 2 -182z m-192 -783 l0
-685 -730 0 -730 0 0 685 0 685 730 0 730 0 0 -685z m90 -740 c0 -33 -2 -35
-35 -35 -33 0 -35 2 -35 35 0 33 2 35 35 35 33 0 35 -2 35 -35z m-2020 -1155
l0 -830 -505 0 -505 0 0 830 0 830 505 0 505 0 0 -830z m1840 785 l0 -45 -45
0 -45 0 0 -134 0 -135 -42 -3 -43 -3 -3 -187 -2 -188 -45 0 -45 0 0 -409 0
-410 -42 -3 c-43 -3 -43 -3 -48 -48 l-5 -45 -687 -3 -688 -2 0 830 0 830 870
0 870 0 0 -45z m4986 -1651 c8 -43 0 -52 -51 -56 l-40 -3 -3 -182 -2 -183 -90
0 -90 0 0 230 0 230 135 0 134 0 7 -36z m-6826 -884 l0 -830 -505 0 -505 1 0
829 0 830 505 0 505 0 0 -830z m1378 738 l-3 -93 -221 -3 -222 -2 -4 -34 c-2
-19 -2 -39 0 -45 2 -7 61 -11 183 -11 l179 0 0 -135 0 -135 -45 0 -45 0 0 -45
0 -45 -227 -2 -228 -3 -3 -47 -3 -48 230 0 231 0 0 45 0 45 45 0 45 0 0 -180
0 -180 -90 0 -90 0 0 -45 c0 -29 -4 -45 -12 -46 -7 0 -47 -2 -88 -3 l-75 -2
-5 -44 -5 -45 -140 -5 -140 -5 -3 -42 -3 -43 -135 0 -134 0 0 -45 c0 -29 4
-45 13 -46 12 -1 245 0 260 1 4 0 7 20 7 45 l0 45 140 0 140 0 0 45 0 45 90 0
90 0 0 45 0 45 135 0 135 0 0 -127 c0 -71 4 -133 8 -138 4 -6 25 -10 47 -10
l40 0 3 -92 3 -93 45 0 45 0 -3 -42 -3 -43 -730 0 -730 0 -3 828 -2 827 640 0
641 0 -3 -92z m5352 -598 l0 -230 -135 0 -135 0 0 134 0 135 43 3 42 3 3 80
c1 44 4 86 7 93 3 8 30 12 90 12 l85 0 0 -230z m-280 -1200 l0 -870 -135 0
-135 0 0 460 0 460 -45 0 -45 0 0 45 0 45 45 0 45 0 0 90 0 90 45 0 45 0 0
140 0 140 45 0 45 0 0 135 0 135 45 0 45 0 0 -870z m-362 -412 l2 -458 -39 0
c-22 0 -43 -4 -46 -10 -4 -7 53 -10 164 -10 168 0 170 0 173 -22 3 -21 7 -22
90 -19 87 3 87 3 94 -24 3 -14 4 -54 2 -88 -5 -70 3 -85 45 -79 36 6 48 -10
46 -63 0 -22 0 -57 0 -77 l1 -38 45 0 45 0 0 -220 c0 -233 1 -229 -44 -221 -6
1 -19 0 -30 -3 -19 -5 -21 -12 -20 -90 1 -82 0 -85 -24 -91 -14 -3 -29 -2 -35
4 -18 18 -34 -11 -30 -54 l5 -40 -40 -2 -41 -3 -3 48 -3 47 -40 0 c-39 0 -40
1 -40 35 -1 50 -9 58 -55 54 -32 -3 -40 0 -41 14 0 9 -2 27 -5 39 -2 12 2 23
11 27 8 3 15 0 15 -7 0 -8 3 -7 9 2 8 13 12 13 27 0 11 -9 15 -9 10 -1 -4 7
-1 12 8 12 12 0 16 10 16 39 0 40 0 40 43 43 l42 3 3 188 2 187 -45 0 c-38 0
-45 3 -45 20 0 11 6 20 13 21 10 0 10 2 0 6 -7 2 -13 13 -13 24 0 12 -7 19
-20 19 -11 0 -20 5 -20 10 0 6 -5 10 -11 10 -5 0 -7 -5 -3 -12 5 -8 2 -9 -10
-5 -10 4 -21 7 -25 7 -3 0 -5 18 -3 40 3 27 0 41 -9 45 -26 9 -427 10 -422 1
4 -5 1 -6 -5 -3 -20 13 -40 -5 -44 -38 -2 -19 0 -31 5 -28 5 3 7 0 5 -8 -3 -9
-19 -13 -47 -13 -34 2 -41 -1 -41 -17 0 -10 -5 -19 -11 -19 -8 0 -8 -4 0 -14
6 -7 8 -21 5 -30 -5 -14 -20 -16 -85 -15 l-79 2 0 36 c0 46 -14 61 -59 61
l-36 0 0 80 0 80 36 0 c44 0 59 15 59 57 0 39 13 43 110 40 61 -2 65 0 68 21
3 21 1 22 -91 22 -86 0 -95 -2 -100 -20 -4 -16 -14 -20 -45 -20 -41 0 -41 0
-44 -42 l-3 -43 -48 -3 -48 -3 2 -87 2 -87 -44 0 -44 0 0 40 0 40 -92 3 -93 3
0 44 0 45 -180 0 -180 0 0 45 0 45 -230 0 c-223 0 -230 1 -230 20 0 23 -67 21
682 23 279 0 504 5 502 9 -3 4 -43 8 -89 8 l-84 0 -3 43 -3 42 -93 3 -93 3 3
42 3 42 93 3 92 3 0 44 0 45 89 0 90 0 3 43 c3 42 3 42 48 47 45 5 45 5 48 47
3 42 3 42 45 45 42 3 42 3 47 47 5 45 5 45 45 45 l40 1 3 48 3 47 45 0 44 0 0
45 0 45 45 0 c44 0 45 1 45 33 0 45 10 55 55 59 l40 3 3 48 3 48 42 -3 42 -3
3 -457z m-1121 -440 c-2 -13 -4 -5 -4 17 -1 22 1 32 4 23 2 -10 2 -28 0 -40z
m-1754 -35 c-13 -2 -35 -2 -50 0 -16 2 -5 4 22 4 28 0 40 -2 28 -4z m-1523
-268 l0 -45 45 0 45 0 0 -45 0 -45 -45 0 -45 0 0 -45 0 -45 -90 0 -90 0 0 -45
c0 -36 -4 -45 -17 -46 -75 -6 -77 -7 -77 -57 l-1 -37 -92 -3 -93 -3 0 186 0
185 45 0 45 0 0 38 c0 21 3 42 7 45 3 4 87 7 185 7 l178 0 0 -45z m4570 -90
l0 -45 45 0 45 0 0 -185 0 -185 -45 0 -45 0 0 -45 0 -45 -45 0 -45 0 0 45 0
45 -45 0 -45 0 0 45 0 45 -45 0 -45 0 0 45 0 44 -92 3 -93 3 -3 48 -3 47 -45
0 -44 0 0 45 0 45 45 0 45 0 0 45 0 45 230 0 230 0 0 -45z m-5580 -1145 l0
-90 -45 0 -45 0 0 -90 0 -90 -45 0 -45 0 0 -140 0 -140 -45 0 -45 0 0 -135 0
-135 -45 0 -45 0 -2 -182 -3 -183 -42 -3 -43 -3 0 45 0 46 -432 1 c-238 1
-466 1 -505 -1 l-73 -2 0 596 0 596 730 0 730 0 0 -90z"/>
<path d="M1320 11445 l0 -45 -45 0 -45 0 0 -325 0 -325 45 0 45 0 0 -45 0 -45
325 0 325 0 0 45 0 45 45 0 45 0 0 325 0 325 -45 0 -45 0 0 45 0 45 -325 0
-325 0 0 -45z m640 -372 l-5 -318 -312 -2 -312 -2 -5 27 c-4 15 -5 159 -4 320
l2 292 320 0 321 0 -5 -317z"/>
<path d="M1320 10525 c0 -33 -4 -45 -15 -46 -8 -1 -24 -3 -35 -4 -11 -1 -24
-3 -30 -4 -6 -1 -10 -115 -10 -321 l0 -320 45 0 45 0 0 -50 0 -50 323 2 322 3
3 48 3 47 45 0 44 0 0 324 0 324 -42 -2 -43 -1 -5 45 -5 45 -322 3 -323 2 0
-45z m642 -77 c2 -13 2 -157 0 -320 l-3 -298 -313 0 c-289 0 -314 1 -321 17
-7 20 -5 591 2 611 4 9 77 12 318 12 l314 0 3 -22z"/>
<path d="M2797 11213 c-4 -3 -7 -23 -7 -44 0 -37 -1 -38 -42 -41 l-43 -3 -3
-512 -2 -513 44 0 45 0 3 -42 3 -43 555 0 555 0 3 42 c3 42 3 42 45 45 l42 3
0 510 0 510 -42 3 c-42 3 -42 3 -45 45 l-3 42 -551 3 c-303 1 -554 -1 -557 -5z
m1103 -598 l0 -505 -547 2 -548 3 -3 490 c-1 270 0 496 3 503 3 9 123 12 550
12 l545 0 0 -505z"/>
<path d="M1320 9415 l0 -45 -45 0 -45 0 0 -325 0 -325 45 0 45 0 0 -45 0 -45
325 0 325 0 0 45 0 45 45 0 45 0 0 325 0 325 -45 0 -45 0 0 45 0 45 -325 0
-325 0 0 -45z m641 -59 c2 -2 3 -144 1 -315 l-3 -311 -317 2 -317 3 0 105 c0
58 1 198 3 313 l2 207 313 0 c173 0 316 -2 318 -4z"/>
<path d="M1320 8496 l0 -45 -42 -3 -43 -3 -3 -182 -2 -183 44 0 45 0 3 -47 3
-48 320 0 320 0 5 45 c5 45 5 45 48 48 l42 3 -2 182 -3 182 -42 3 c-42 3 -42
3 -45 45 l-3 42 -322 3 -323 2 0 -44z m642 -221 c-1 -88 -2 -168 -2 -178 0
-16 -20 -17 -317 -15 l-318 3 -3 164 c-2 90 -1 170 2 178 5 11 62 13 322 11
l317 -3 -1 -160z"/>
<path d="M1327 7703 c-4 -3 -7 -26 -7 -50 l0 -43 -45 0 -45 0 0 -230 0 -230
45 0 45 0 0 -45 0 -45 325 0 325 0 0 45 0 45 45 0 45 0 0 230 0 230 -44 0 -45
0 -3 48 -3 47 -316 3 c-173 1 -318 -1 -322 -5z m633 -318 l0 -225 -314 2 -315
3 -4 209 c-3 115 -3 215 0 223 4 10 65 13 319 13 l314 0 0 -225z"/>
<path d="M1320 6925 l0 -45 -45 0 -45 0 2 -277 3 -278 43 -3 42 -3 0 -45 0
-44 323 2 322 3 3 42 c3 42 3 42 45 45 l42 3 3 278 2 277 -45 0 -45 0 0 45 0
45 -325 0 -325 0 0 -45z m640 -67 c0 -7 1 -128 1 -268 l1 -255 -319 0 -318 0
-2 255 c-2 140 -1 261 2 268 3 9 76 12 320 12 245 0 315 -3 315 -12z"/>
<path d="M2614 7696 c-3 -8 -4 -29 -2 -48 l3 -33 233 -3 233 -2 -3 47 -3 48
-228 3 c-189 2 -228 0 -233 -12z"/>
<path d="M2520 7015 l0 -45 185 0 185 0 0 45 0 45 -185 0 -185 0 0 -45z"/>
<path d="M8460 4761 c0 -7 -4 -9 -10 -6 -5 3 -10 1 -10 -4 0 -6 4 -11 9 -11
13 0 25 20 17 27 -3 4 -6 1 -6 -6z"/>
<path d="M8550 4019 c0 -5 5 -7 10 -4 6 3 10 8 10 11 0 2 -4 4 -10 4 -5 0 -10
-5 -10 -11z"/>
<path d="M4550 11410 l0 -290 45 0 45 0 0 -506 0 -505 45 3 46 3 1 500 1 500
-44 5 -44 5 -3 288 -2 287 -45 0 -45 0 0 -290z"/>
<path d="M5010 11500 l0 -200 45 0 45 0 0 -505 0 -505 50 0 50 0 -2 508 -3
507 -47 3 -48 3 0 195 0 194 -45 0 -45 0 0 -200z"/>
<path d="M5284 11553 l1 -148 48 -3 47 -3 0 -510 0 -509 44 0 45 0 3 43 3 42
502 3 502 2 3 -87 3 -88 48 -3 47 -3 0 135 0 135 43 3 42 3 0 325 0 325 -30 1
c-58 1 -55 17 -55 -327 l0 -319 -552 2 -553 3 -3 413 -2 412 -45 0 -45 0 0 90
0 90 645 0 645 0 0 -185 0 -185 44 0 c26 0 46 5 49 13 2 7 5 117 6 245 l2 232
-50 0 c-27 0 -51 -4 -53 -10 -4 -14 -1267 -15 -1281 -1 -6 6 -32 11 -57 11
l-47 0 1 -147z"/>
<path d="M6848 11318 l-3 -383 -25 -1 c-66 -2 -60 33 -60 -369 l0 -365 50 0
50 0 0 365 0 365 45 0 45 0 0 385 0 385 -50 0 -50 0 -2 -382z"/>
<path d="M7400 11460 l0 -240 -29 0 c-65 0 -61 24 -61 -376 l0 -364 -45 0 -45
0 0 -186 0 -185 48 3 47 3 1 175 1 175 44 5 44 5 3 367 2 367 43 3 42 3 3 243
2 242 -50 0 -50 0 0 -240z"/>
<path d="M7866 11685 c-3 -10 -19 -15 -46 -15 l-40 0 -2 -412 -3 -413 -42 -3
c-24 -2 -43 -6 -43 -10 0 -4 -1 -126 -3 -272 l-2 -265 -48 -3 -47 -3 2 -182 3
-182 45 -5 c45 -5 45 -5 48 -47 l3 -43 71 0 c63 0 69 2 63 18 -4 9 -10 29 -13
45 -2 15 -10 27 -18 27 -8 0 -14 16 -16 48 l-3 47 -42 3 -43 3 0 135 0 134 45
0 45 0 0 275 0 275 45 0 45 0 0 415 0 415 45 0 c33 0 45 4 45 15 0 11 -12 15
-44 15 -30 0 -46 -5 -50 -15z"/>
<path d="M11000 8549 l0 -3150 48 3 47 3 3 3148 2 3147 -50 0 -50 0 0 -3151z"/>
<path d="M8330 11445 l0 -45 -45 0 -45 0 0 -510 0 -510 45 0 45 0 0 -45 0 -45
323 2 322 3 0 45 0 45 -323 3 -322 2 2 500 3 500 1030 0 c567 0 1103 0 1193 0
l162 0 0 -500 0 -500 -547 -2 -548 -3 -3 -48 -3 -47 553 2 553 3 3 42 c3 42 3
42 45 45 l42 3 3 508 2 507 -45 0 -45 0 0 45 0 45 -1200 0 -1200 0 0 -45z"/>
<path d="M9167 10384 c-4 -4 -7 -27 -7 -51 l0 -44 138 3 137 3 0 45 0 45 -131
3 c-71 1 -133 -1 -137 -4z"/>
<path d="M7840 9897 c0 -13 7 -32 15 -43 13 -18 14 -16 15 24 0 31 -4 42 -15
42 -9 0 -15 -9 -15 -23z"/>
<path d="M8330 9786 l0 -45 -42 -3 -43 -3 -3 -134 -3 -133 26 4 c14 3 28 1 31
-3 3 -5 12 -9 20 -9 11 0 14 24 14 135 l0 135 338 2 c185 2 723 2 1195 0 l857
-2 0 -500 0 -500 -993 0 c-742 0 -996 -3 -1005 -12 -6 -6 -27 -11 -46 -10 -40
2 -62 -24 -51 -58 6 -20 20 -20 1053 -18 l1047 3 3 42 c3 42 3 42 45 45 l42 3
0 505 0 505 -42 3 c-42 3 -42 3 -45 45 l-3 42 -1197 3 -1198 2 0 -44z"/>
<path d="M7908 9803 c-36 -4 -38 -6 -38 -39 0 -35 0 -35 43 -32 41 3 42 4 45
41 2 20 0 36 -5 35 -4 -1 -25 -3 -45 -5z"/>
<path d="M6857 9734 c-4 -4 -7 -25 -7 -46 0 -23 -5 -38 -12 -39 -7 0 -89 -1
-183 -2 l-170 -2 -3 -48 -3 -47 -272 2 -272 3 -3 47 -3 47 -42 -3 -42 -3 -3
-46 -3 -47 45 0 46 0 0 -45 0 -45 280 0 280 0 0 45 0 45 183 2 182 3 3 43 3
42 90 0 90 0 -3 48 -3 47 -85 3 c-47 1 -89 0 -93 -4z"/>
<path d="M7965 9721 c-3 -2 -5 -17 -5 -32 0 -20 5 -28 18 -28 9 0 28 -2 42 -3
22 -3 25 1 28 35 l3 38 -41 -3 c-22 -1 -43 -4 -45 -7z"/>
<path d="M7960 9602 l0 -52 45 0 45 0 0 -45 0 -45 45 0 c33 0 45 -4 45 -14 0
-25 18 -28 52 -9 l33 18 -37 3 -38 3 0 60 c0 58 -13 78 -25 39 -6 -19 -35 -29
-35 -11 0 27 24 70 43 76 l22 8 -23 4 c-13 3 -37 0 -54 -6 -44 -16 -79 -14
-100 6 -17 15 -18 14 -18 -35z"/>
<path d="M4180 9415 l0 -44 93 -3 92 -3 5 -43 5 -42 225 -1 225 -2 3 47 3 46
90 0 89 0 0 45 0 45 -95 0 -95 0 0 -45 0 -45 -225 0 -225 0 0 45 0 45 -95 0
-95 0 0 -45z"/>
<path d="M8190 9401 c-19 -9 -38 -20 -42 -26 -13 -18 -9 -85 6 -91 15 -6 150
58 161 76 10 16 -30 12 -70 -7 -44 -21 -56 -11 -25 22 32 34 15 48 -30 26z"/>
<path d="M6950 9325 l0 -45 -325 0 -325 0 0 -45 0 -44 -92 -3 -93 -3 0 -45 0
-45 90 0 90 0 3 42 3 42 168 3 c93 2 176 2 185 0 12 -3 16 -15 16 -48 l0 -44
-45 0 -45 0 0 -415 0 -415 45 0 45 0 0 -45 0 -45 185 0 185 0 0 45 0 45 45 0
45 0 0 90 0 90 45 0 45 0 0 279 0 280 48 3 c39 2 47 6 48 23 4 71 -5 65 95 65
l90 0 -3 48 -3 47 -87 3 -87 3 -3 42 -3 42 -92 3 -93 3 0 -46 0 -45 -91 0 -90
0 3 43 3 42 85 0 85 0 3 48 3 47 -90 0 -91 0 0 -45z m-92 -192 l3 -43 45 0 45
0 -3 -42 -3 -43 -92 -3 -93 -3 0 -95 0 -95 -42 3 -43 3 -3 93 -3 92 46 0 45 0
0 91 0 90 48 -3 47 -3 3 -42z m452 1 l0 -46 -87 4 -88 3 -3 43 -3 42 90 0 91
0 0 -46z"/>
<path d="M8279 9300 c-31 -17 -37 -25 -41 -59 -5 -57 -2 -61 48 -61 37 0 44
-3 44 -20 0 -24 8 -25 34 -5 11 8 28 15 38 15 10 0 18 5 18 10 0 6 -20 10 -45
10 l-45 0 0 65 c0 36 -3 65 -7 65 -5 -1 -24 -10 -44 -20z"/>
<path d="M4368 9143 l-3 -48 -92 -3 -93 -3 0 -44 0 -45 -45 0 -45 0 0 -44 c0
-47 7 -54 55 -51 28 2 30 4 33 48 l3 46 92 3 92 3 3 43 3 42 45 0 44 0 0 -90
0 -90 -45 0 -45 0 0 -325 0 -325 45 0 45 0 0 -45 0 -45 45 0 45 0 0 -45 0 -46
138 3 137 3 3 42 c3 42 3 42 45 45 42 3 42 3 45 46 l3 42 45 0 44 0 0 325 0
325 -45 0 -45 0 0 90 0 90 -44 0 -45 0 -3 48 -3 47 -227 3 -227 2 -3 -47z
m462 -82 c0 -52 -8 -61 -56 -61 l-44 0 0 -96 0 -95 -42 3 -43 3 -3 93 -3 92
46 0 45 0 0 45 0 45 50 0 c49 0 50 -1 50 -29z m88 -665 c-3 -41 -3 -41 -45
-44 -24 -2 -43 -8 -44 -15 0 -7 -2 -46 -2 -87 l-2 -75 -45 0 -45 0 -3 88 -3
87 51 0 50 0 0 44 c0 41 2 45 28 48 53 7 63 -1 60 -46z"/>
<path d="M8377 9134 c-9 -10 12 -34 30 -34 19 0 12 34 -8 38 -8 1 -18 0 -22
-4z"/>
<path d="M8334 9094 c3 -9 6 -18 6 -20 0 -2 5 -4 10 -4 6 0 10 9 10 20 0 12
-7 20 -16 20 -11 0 -14 -5 -10 -16z"/>
<path d="M8370 9036 c0 -16 28 -42 36 -33 8 7 -14 47 -26 47 -6 0 -10 -6 -10
-14z"/>
<path d="M8330 9006 c0 -9 5 -26 11 -37 7 -15 7 -24 -1 -34 -13 -16 -5 -36 13
-34 45 5 67 -2 67 -22 0 -18 5 -21 30 -17 17 3 30 1 30 -4 0 -4 7 -8 15 -8 18
0 20 33 3 48 -7 6 -26 12 -43 14 -24 2 -31 8 -33 31 -2 17 -9 27 -20 27 -9 0
-29 12 -44 27 -23 22 -28 24 -28 9z"/>
<path d="M8425 8829 c-4 -6 -5 -13 -2 -16 7 -7 27 6 27 18 0 12 -17 12 -25 -2z"/>
<path d="M8545 8640 c-4 -6 5 -10 20 -10 15 0 24 4 20 10 -3 6 -12 10 -20 10
-8 0 -17 -4 -20 -10z"/>
<path d="M5105 7978 c-2 -7 -6 -29 -7 -48 -3 -33 -5 -35 -45 -38 l-43 -3 0
-185 0 -184 45 0 45 0 0 -45 0 -45 89 0 c102 0 98 5 97 -110 l-1 -65 -45 -5
c-45 -5 -45 -5 -48 -47 l-3 -43 -182 -2 -182 -3 -3 -48 -3 -48 -42 3 -42 3 -3
48 -3 47 -45 0 -44 0 0 90 0 90 -45 0 -45 0 0 -95 0 -95 45 0 45 0 0 -45 0
-45 45 0 45 0 0 -45 0 -45 44 0 45 0 3 -42 3 -43 648 -3 647 -2 0 45 0 45 45
0 45 0 0 45 0 45 45 0 45 0 0 44 0 45 48 3 47 3 0 90 0 90 -47 3 -48 3 0 -90
0 -90 -42 -3 c-43 -3 -43 -3 -48 -48 -5 -45 -5 -45 -47 -48 l-42 -3 -3 48 -3
48 -320 5 -320 5 -1 30 c-1 17 -2 36 -3 43 -1 7 -17 12 -46 12 l-46 0 3 88 3
87 93 3 92 3 0 44 0 45 45 0 45 0 0 185 0 185 -44 0 -45 0 -3 48 -3 47 -228 3
c-177 2 -228 0 -232 -10z m365 -873 l0 -45 320 0 320 0 0 -45 0 -45 -637 2
-638 3 -3 43 -3 42 185 0 186 0 0 45 0 45 135 0 135 0 0 -45z"/>
<path d="M5201 6686 c-7 -8 -11 -30 -9 -48 l3 -33 233 -3 233 -2 -3 47 -3 48
-221 3 c-184 2 -223 0 -233 -12z"/>
<path d="M1050 5323 c0 -21 3 -24 9 -14 5 8 7 20 4 28 -8 21 -13 15 -13 -14z"/>
<path d="M1050 5260 c0 -11 5 -20 10 -20 6 0 10 9 10 20 0 11 -4 20 -10 20 -5
0 -10 -9 -10 -20z"/>
<path d="M9252 5078 l3 -53 228 -2 227 -1 0 54 0 54 -231 0 -230 0 3 -52z"/>
<path d="M10727 5123 c-4 -3 -7 -28 -7 -55 l0 -48 50 0 50 0 0 55 0 55 -43 0
c-24 0 -47 -3 -50 -7z"/>
<path d="M11005 5030 c-4 -6 13 -10 45 -10 32 0 49 4 45 10 -3 6 -24 10 -45
10 -21 0 -42 -4 -45 -10z"/>
<path d="M640 2914 l0 -2107 26 -24 c19 -18 24 -27 16 -35 -8 -8 -16 -7 -27 2
-14 12 -15 6 -13 -49 1 -43 7 -65 17 -71 12 -6 13 -11 3 -23 -9 -10 -10 -17
-2 -22 15 -9 12 -28 -3 -22 -11 4 -14 -35 -14 -208 0 -200 1 -214 18 -218 25
-7 24 -23 -1 -30 -17 -4 -20 -14 -20 -56 l0 -51 45 0 45 0 0 2510 0 2510 -45
0 -45 0 0 -2106z m61 -2501 c2 -78 -3 -115 -15 -102 -2 2 -7 37 -10 77 -6 61
-5 72 8 72 12 0 16 -12 17 -47z"/>
<path d="M3970 4749 c0 -5 5 -7 10 -4 6 3 10 8 10 11 0 2 -4 4 -10 4 -5 0 -10
-5 -10 -11z"/>
<path d="M4753 4072 c-5 -1 -7 -22 -5 -45 l4 -44 -79 0 c-43 -1 -85 -2 -93 -2
-20 -1 -22 -101 -2 -101 16 -1 158 -1 175 0 8 0 11 14 9 45 l-4 45 130 0 131
0 3 -46 3 -46 135 -1 135 -2 2 -35 c1 -19 2 -39 2 -45 1 -6 52 -10 133 -10
l133 0 5 -45 5 -45 185 0 185 0 3 52 3 53 -183 2 -183 3 -2 25 c0 14 -1 33 -2
43 -1 15 -14 17 -136 17 l-135 0 0 45 c0 29 -4 45 -12 45 -80 0 -250 9 -255
14 -3 3 -6 22 -7 43 l-1 37 -137 1 c-76 0 -141 -1 -145 -3z"/>
<path d="M7850 3880 c-9 -6 -10 -10 -3 -10 7 0 10 -13 9 -32 l-2 -33 -137 -3
-136 -3 -3 -42 -3 -42 -125 0 -125 0 -3 43 -3 43 -52 -3 -51 -3 -1 -43 c-1
-56 6 -65 49 -60 38 4 39 3 38 -54 0 -15 6 -32 14 -39 10 -8 14 -8 14 0 0 6 7
11 16 11 8 0 13 -3 11 -7 -3 -5 49 -8 114 -8 131 0 133 1 125 63 l-3 32 132 0
c146 0 145 0 145 63 l0 32 131 0 c77 0 134 4 139 10 5 6 8 28 6 50 l-2 40
-139 2 c-80 2 -146 -1 -155 -7z"/>
<path d="M5200 3620 l-175 -5 -3 -42 c-3 -41 -4 -43 -37 -43 -63 0 -60 8 -55
-198 5 -187 5 -187 28 -184 12 2 22 -2 22 -9 0 -9 4 -8 15 1 17 14 22 5 27
-48 l3 -33 182 -1 c100 0 186 2 191 6 5 3 8 21 5 41 -4 30 -1 35 21 41 14 3
29 4 33 1 33 -21 39 51 33 376 0 4 -15 5 -32 2 -45 -7 -56 3 -60 54 -2 25 -7
45 -13 45 -5 1 -89 -1 -185 -4z"/>
<path d="M8792 3598 c7 -20 58 -23 58 -4 0 11 -10 16 -31 16 -20 0 -29 -4 -27
-12z"/>
<path d="M8774 3559 c-3 -6 -7 -37 -8 -69 -2 -65 2 -70 59 -70 25 0 35 -5 40
-20 4 -11 10 -18 15 -15 5 3 18 0 28 -6 27 -17 52 -4 52 26 0 23 -4 25 -45 25
l-45 0 0 55 c0 36 -4 57 -12 59 -7 2 -28 8 -45 14 -21 6 -35 7 -39 1z"/>
<path d="M7495 3432 c-5 -4 -10 -25 -10 -46 0 -39 0 -39 -40 -41 -22 -1 -42
-3 -45 -4 -3 0 -4 -85 -4 -189 l1 -187 44 0 44 -1 3 -47 3 -47 187 2 187 3 3
47 3 47 42 -2 42 -2 0 190 0 190 -40 0 -40 0 -5 45 -5 45 -180 2 c-99 1 -184
-1 -190 -5z"/>
<path d="M8866 3350 c-3 -14 -7 -44 -8 -67 l-4 -43 48 0 48 0 0 -138 0 -137
68 0 c37 0 59 1 50 3 -14 3 -18 14 -18 53 0 42 -3 49 -20 49 -11 0 -20 5 -20
11 0 6 9 13 20 16 18 5 20 14 20 79 l0 74 -42 -2 -43 -3 -3 41 c-3 39 -6 42
-37 48 -19 4 -39 14 -44 24 -8 14 -10 13 -15 -8z"/>
<path d="M7368 2943 c6 -2 18 -2 25 0 6 3 1 5 -13 5 -14 0 -19 -2 -12 -5z"/>
<path d="M9234 2676 c-6 -16 12 -56 26 -56 17 0 20 18 9 44 -14 29 -27 33 -35
12z"/>
<path d="M9176 2638 c8 -28 26 -41 36 -26 9 16 -9 48 -28 48 -11 0 -14 -6 -8
-22z"/>
<path d="M9139 2578 c-1 -24 -2 -110 -3 -193 l-1 -150 27 -3 c53 -6 68 12 68
83 0 58 -2 65 -20 65 -11 0 -20 5 -20 10 0 6 7 10 15 10 22 0 18 21 -5 27 -28
7 -25 23 5 23 24 0 25 2 25 66 0 56 -2 65 -16 60 -20 -8 -54 11 -54 29 0 8 -4
15 -10 15 -5 0 -11 -19 -11 -42z"/>
<path d="M6394 2225 c-3 -14 -3 -36 0 -50 l6 -25 -95 0 -95 0 0 -90 0 -90 -45
0 -45 0 0 -146 0 -146 43 4 42 3 2 -82 c1 -45 4 -87 8 -93 3 -5 43 -10 90 -10
l84 0 3 -42 3 -43 88 -3 c48 -1 87 -6 87 -10 1 -17 2 -408 1 -419 -1 -7 -20
-13 -43 -15 -41 -3 -42 -4 -43 -40 0 -20 -3 -39 -6 -42 -3 -3 -251 -6 -552 -6
l-546 -1 2 -52 2 -52 138 -3 137 -3 0 -89 c0 -65 4 -90 13 -91 6 -1 17 -2 22
-4 6 -1 20 -3 33 -3 19 -2 22 -8 22 -42 l0 -40 736 -2 c405 -2 738 0 740 4 3
4 6 25 7 45 1 37 2 38 41 40 46 2 55 13 49 59 l-5 34 184 2 183 3 3 39 c2 21
-1 43 -6 48 -5 5 -105 9 -230 8 l-221 -1 -3 46 -3 46 -222 1 c-208 0 -223 2
-228 19 -4 11 -3 28 0 39 11 33 -11 50 -56 44 l-39 -6 0 221 0 220 93 3 92 3
-2 42 -2 42 92 3 92 3 0 85 0 85 45 5 45 5 3 143 3 142 -46 0 -45 0 0 74 c0
108 2 106 -96 106 -60 0 -84 4 -85 13 -1 6 -2 28 -3 47 l-1 35 -232 3 -233 2
-6 -25z m452 -107 c3 -72 1 -68 50 -68 l46 0 -4 -45 c-3 -48 -4 -48 55 -45
l37 2 0 -131 0 -131 -45 0 -45 0 0 -45 c0 -45 0 -45 -34 -45 -55 0 -63 -6 -59
-49 2 -24 -2 -41 -10 -43 -6 -2 -108 -2 -224 0 l-213 4 0 38 c0 40 -11 50 -55
50 -18 0 -25 7 -30 29 -3 15 -5 34 -3 42 2 10 -9 15 -37 17 -22 2 -43 9 -47
15 -12 19 -7 191 6 199 8 6 7 8 -1 8 -7 0 -13 9 -13 20 0 17 7 20 50 20 28 0
49 3 49 8 -1 4 -1 24 0 45 1 36 2 37 41 37 l40 0 0 44 c0 44 0 45 38 48 20 2
120 2 222 1 l185 -2 1 -23z m-176 -1203 l0 -45 45 0 45 0 0 -45 0 -45 230 0
230 0 0 -90 0 -90 -730 0 -730 0 0 90 0 90 413 0 412 0 -3 75 c-5 98 -2 105
48 105 l40 0 0 -45z"/>
<path d="M9229 1839 c-1 -444 0 -411 -18 -417 -10 -3 -11 0 -5 9 7 12 5 12 -9
1 -9 -8 -20 -11 -26 -8 -5 3 -15 4 -23 1 -10 -4 -13 -52 -14 -228 l-2 -222
-43 -5 -44 -5 -3 -138 -3 -137 -44 0 -45 0 0 -90 0 -90 -45 0 -45 0 0 -90 0
-90 -45 0 -45 0 0 -60 c0 -33 0 -63 1 -67 0 -4 -8 -10 -18 -14 -17 -7 -17 -8
0 -8 27 -1 17 -35 -12 -39 -17 -3 -21 0 -15 10 6 10 5 11 -7 1 -13 -11 -19
-13 -37 -13 -5 0 -8 -19 -8 -42 1 -36 -2 -43 -19 -44 -64 -3 -65 -4 -65 -29 0
-25 0 -25 95 -25 l95 0 0 70 0 70 45 0 45 0 0 90 0 90 45 0 45 0 0 90 0 90 45
0 45 0 0 96 0 95 28 -2 c65 -5 62 -12 62 136 l0 135 45 0 45 0 0 -45 0 -45
275 0 275 0 0 -435 0 -435 45 0 45 0 0 435 0 435 -45 0 -45 0 0 45 0 45 -272
2 -273 3 -3 133 -3 132 456 -2 456 -3 -1 -612 -1 -613 51 0 50 0 -2 618 -3
617 -42 3 -43 3 0 45 0 44 -461 0 -460 0 3 43 c3 42 3 42 46 45 l42 3 0 395 0
394 -29 0 c-16 0 -36 3 -45 6 -14 6 -16 -32 -17 -377z"/>
<path d="M8498 1948 c-1 -13 -2 -32 -2 -43 -1 -17 -9 -21 -48 -23 l-47 -3 0
-77 c0 -42 0 -83 0 -89 -1 -9 -17 -13 -46 -13 l-45 0 2 -187 3 -188 43 -3 c43
-3 49 -12 43 -60 -5 -34 17 -39 152 -38 l132 1 3 48 3 47 43 0 c56 0 56 0 56
208 0 176 2 169 -60 176 l-35 3 -3 87 -3 86 -44 0 -45 0 0 45 0 45 -50 0 c-45
0 -50 -2 -52 -22z m92 -168 l0 -90 45 0 45 0 0 -180 0 -180 -135 0 -135 0 0
180 0 180 45 0 45 0 0 90 0 90 45 0 45 0 0 -90z"/>
<path d="M2798 348 c6 -6 18 -8 28 -6 14 3 12 5 -9 10 -19 3 -25 2 -19 -4z"/>
<path d="M6482 333 l-363 -3 3 -53 3 -52 355 -2 c195 -1 363 0 372 3 14 4 16
15 14 52 -5 61 -5 62 -13 60 -5 -2 -171 -4 -371 -5z"/>
</g>
</svg>
